<?xml version="1.0" encoding="UTF-8"?>
<svg width="114px" height="114px" viewBox="0 0 114 114" version="1.1" xmlns="http://www.w3.org/2000/svg" xmlns:xlink="http://www.w3.org/1999/xlink">
    <title>apple-icon-114x114</title>
    <style>
	g {
	    fill: #065555;
	}
	@media(prefers-color-scheme: dark) {
	    g {
		fill: #29D1D1;
	    }
	}
    </style>
    <g id="apple-icon-114x114" stroke="none" stroke-width="1" fill="none" fill-rule="evenodd">
        <g id="Small">
            <path d="M34.1938369,50.9359366 C30.5597465,47.3649358 28.3196121,41.642893 27.6104545,39.6391953 C26.4693775,36.4154513 23.2162043,29.3461313 19.9204024,29.6987212 C16.3604554,30.0793475 10.4891232,33.716478 -0.249027867,30.3332001 C-10.9862198,26.9499221 -19.95,32.370115 -19.95,32.370115 C-13.5806285,25.4016656 -3.39806543,27.0958949 -3.39806543,27.0958949 C-3.39806543,27.0958949 5.18353389,29.1073637 11.2011735,26.627502 C17.2188132,24.1490117 24.1602761,19.7721129 29.968122,28.6720356 C35.7758157,37.5731772 38.9553023,45.877933 42.7180398,39.571999 C46.4800161,33.266065 39.9156643,20.4663218 39.3584473,17.7402263 C38.8029049,15.0142831 37.8993303,3.26286235 49.1580074,0.38591806 C60.4166844,-2.49102623 66.1505392,11.3987895 66.3760142,19.4420742 C66.6024027,27.4853589 64.9272499,40.8258719 70.9423014,42.1329229 C76.9582663,43.4387548 79.1913974,39.1976199 82.2332544,33.4754248 C85.2743502,27.74683 92.0763566,25.8749344 97.954692,30.9842876 C103.832114,36.0922693 111.187988,36.8955769 113.966918,37.7508435 C116.746761,38.6036721 130.165339,41.5694495 133.95,30.5920809 C132.942137,34.3284058 127.98321,46.6946494 101.966198,39.4408063 C96.5765694,37.9381092 92.3943966,33.5688291 89.2293733,36.4675627 C86.298503,39.1519082 85.0030495,48.6527878 79.0167723,52.4668226 C80.9394756,55.0285083 82.4875037,57.5231501 83.8271083,59.9214926 C85.7967031,63.4478482 87.2398344,66.6040912 89.0835225,69.0885241 C90.240433,70.6474467 91.4300762,71.9782677 93.1595805,72.7777659 C95.9875331,74.0848168 98.566565,74.0313341 100.939457,73.2601771 C106.129949,71.5732617 110.229453,67.2806249 113.008078,66.6441652 C110.311361,67.8594879 106.992874,73.0352754 102.056784,75.8119586 C99.126218,77.4604762 95.7229311,78.141581 91.6403266,77.1651784 C88.9181843,76.5140909 86.764373,75.0359257 84.6475572,73.1251751 C81.3077565,70.1103338 78.3965258,65.577558 73.7245805,60.9419309 C73.6853013,64.9819341 72.9846693,69.4251148 71.3679787,73.9389964 C69.1188619,80.2188747 65.3760684,86.649297 59.430593,92.0472435 C63.1741476,94.8996558 65.0312333,98.1456462 65.62301,101.390341 C66.5530753,106.49011 64.3892157,111.415474 61.8057687,114 C63.7922627,111.257204 63.3961837,106.455842 61.8003506,101.925473 C61.4628232,100.96734 60.979445,100.034074 60.3275315,99.1454838 C58.8952096,97.1934708 57.9052941,96.8095238 56.0947059,96.8095238 C54.2841176,96.8095238 53.1263653,97.1934708 51.6941957,99.1454838 C51.04213,100.034074 50.5587518,100.96734 50.2213767,101.925473 C48.6255436,106.455842 48.2294645,111.257204 50.2158063,114 C47.6325115,111.415474 45.468652,106.49011 46.3987172,101.390341 C46.9904939,98.1456462 48.8475796,94.8996558 52.5911343,92.0472435 C46.6455065,86.649297 42.9028654,80.2188747 40.6537486,73.9389964 C39.0370579,69.4251148 38.3364259,64.9819341 38.2971467,60.9419309 C33.6250492,65.577558 30.7138185,70.1103338 27.3740178,73.1251751 C25.2573543,75.0359257 23.1035429,76.5140909 20.3812483,77.1651784 C16.2986438,78.141581 12.8955092,77.4604762 9.96479112,75.8119586 C5.02885287,73.0352754 1.71021427,67.8594879 -0.986503111,66.6441652 C1.79212213,67.2806249 5.89162583,71.5732617 11.0821179,73.2601771 C13.4550099,74.0313341 16.0340419,74.0848168 18.8619945,72.7777659 C20.5914988,71.9782677 21.7812942,70.6474467 22.9380525,69.0885241 C24.7818928,66.6040912 26.2248718,63.4478482 28.1946189,59.9214926 C29.7997389,57.0475957 31.7041728,54.0354971 34.1938369,50.9359366 Z M55.6459342,48.45 C51.9160843,48.4727799 50.0966494,51.3722515 49.6315307,52.2372062 C47.4943251,56.2120944 45.554902,62.9242362 47.1163955,70.793294 C48.2742477,76.6284592 50.8571234,82.7807224 55.6017627,88.35 C60.3464021,82.7807224 62.9292778,76.6284592 64.08713,70.793294 C65.6484586,62.9242362 63.3040758,55.8222403 61.6057827,52.1642939 C61.1274784,51.1339987 59.3759489,48.4275025 55.6459342,48.45 Z" id="Fill-1"></path>
        </g>
    </g>
</svg>
